<svg id="Capa_1" data-name="Capa 1" xmlns="http://www.w3.org/2000/svg" xmlns:xlink="http://www.w3.org/1999/xlink" viewBox="0 0 1500 500"><defs><style>.cls-1{fill:none;}.cls-2{fill:#f07c15;}.cls-3{fill:#d77524;}.cls-4{clip-path:url(#clip-path);}.cls-5{font-size:27px;font-family:Montserrat-Regular, Montserrat;}.cls-11,.cls-13,.cls-5{fill:#fff;}.cls-6{letter-spacing:-0.01em;}.cls-7{letter-spacing:-0.02em;}.cls-8{letter-spacing:0em;}.cls-9{letter-spacing:-0.01em;}.cls-10{letter-spacing:-0.02em;}.cls-11{font-size:92px;font-family:MellaNissa, Mella Nissa;}.cls-12{letter-spacing:0.03em;}.cls-14{fill:#fdfdfd;}.cls-15{fill:#fefefe;}.cls-16{fill:#71bf44;}.cls-17{clip-path:url(#clip-path-2);}.cls-18{fill:#be6229;}.cls-19{fill:#233862;}.cls-20{fill:#ffb27d;}.cls-21{fill:#2b478b;}.cls-22{fill:#ed975d;}.cls-23{fill:#ebf3ff;}.cls-24{fill:#f99746;}.cls-25{fill:#ed7d2b;}.cls-26{fill:#f58e21;}</style><clipPath id="clip-path"><rect class="cls-1" x="-20.25" y="-709.69" width="1500" height="454.69"/></clipPath><clipPath id="clip-path-2"><path class="cls-1" d="M1203.26,243.11l-4-5.08s-.21-.37.18-.4l2.34-.19,1.53-2.95.18-4.19-2.14-4-5.41-.8-6,.28-.56,6-.34,9.9,1.36,2.63,13.4-.39-.09-.43Z"/></clipPath></defs><rect class="cls-2" x="-7" y="-9.5" width="1514" height="519"/><polygon class="cls-3" points="790.96 162.67 743.55 190.05 696.13 162.67 696.13 107.93 743.55 80.55 790.96 107.93 790.96 162.67"/><g class="cls-4"><image width="720" height="1280" transform="translate(-20.25 -1812.22) scale(2.08)" xlink:href="WhatsApp%20Image%202021-08-11%20at%2011.39.59%20AM.jpeg"/></g><text class="cls-5" transform="translate(713.57 290.6)">por C<tspan class="cls-6" x="72.55" y="0">r</tspan><tspan class="cls-7" x="83.02" y="0">e</tspan><tspan x="98.93" y="0">a</tspan><tspan class="cls-8" x="114.86" y="0">n</tspan><tspan x="133.19" y="0">do </tspan><tspan class="cls-9" x="175.5" y="0">T</tspan><tspan x="190.62" y="0">u </tspan><tspan class="cls-10" x="215.86" y="0">F</tspan><tspan x="232.47" y="0">utu</tspan><tspan class="cls-6" x="279.77" y="0">r</tspan><tspan x="290.25" y="0">o </tspan></text><text class="cls-11" transform="translate(381.53 238.9)">tech pow<tspan class="cls-12" x="458.11" y="0">e</tspan><tspan x="517.23" y="0">r</tspan></text><path class="cls-13" d="M1142.7,156.11l.36,0c.14.07.3.07.45.14l.39,0c.18.16.44,0,.63.17l.33,0a3.29,3.29,0,0,1,.48.15l.32.05a4,4,0,0,1,.49.15.15.15,0,0,0,.18,0c.18.17.45,0,.63.18a.14.14,0,0,0,.16,0c.14.08.31.07.44.15l.21,0c.16.19.43,0,.61.19a.11.11,0,0,0,.14,0c.15.07.32.06.46.16a.17.17,0,0,0,.17,0c.13.09.31.08.44.16a.17.17,0,0,0,.18,0c.12.1.3.08.43.16a.17.17,0,0,0,.18,0c.12.1.29.08.42.17a.2.2,0,0,0,.18,0c.13.1.3.07.43.16a.15.15,0,0,0,.17,0c.13.09.31.07.44.18a.11.11,0,0,0,.14,0c.15.07.34.07.47.18h0c.11.12.28.09.4.17a.2.2,0,0,0,.18.05c.13.1.31.07.43.18a.1.1,0,0,0,.13,0c.11,0,.18.09.27.14a.22.22,0,0,0,.19.05c.12.11.31.07.43.18a.08.08,0,0,0,.12,0,.62.62,0,0,1,.28.14.18.18,0,0,0,.17.05c.13.09.32.07.44.19h0c.11.12.29.08.4.18a.1.1,0,0,0,.13,0,.76.76,0,0,1,.28.15.15.15,0,0,0,.16.05l.24.14a.17.17,0,0,0,.18.05c.13.11.32.08.43.2h0c.11.12.29.09.41.19h0c.09.13.28.08.39.19a.07.07,0,0,0,.11,0,.51.51,0,0,1,.29.15.1.1,0,0,0,.13,0,.57.57,0,0,1,.28.16.09.09,0,0,0,.12,0,.56.56,0,0,1,.28.16.11.11,0,0,0,.13,0,.55.55,0,0,1,.28.15.09.09,0,0,0,.12.05.56.56,0,0,1,.29.16h0c.1.14.29.09.4.2h0c.1.14.29.09.4.21h0c.1.12.3.08.4.21h0a.77.77,0,0,0,.21.14.16.16,0,0,0,.17.07l.24.15a.13.13,0,0,0,.14.06.6.6,0,0,1,.26.16.09.09,0,0,0,.11,0,.48.48,0,0,1,.3.17h0c.11.13.31.08.4.23h0l.22.15a.13.13,0,0,0,.14.06.68.68,0,0,1,.28.17h0c.1.13.3.08.39.22h0l.22.16a.11.11,0,0,0,.13.06.57.57,0,0,1,.28.18h0c.1.12.31.08.39.23h0c.1,0,.16.12.24.17h0c.09.15.3.09.38.24h0l.22.16a.08.08,0,0,0,.11,0,.38.38,0,0,1,.29.2h0l.21.16a.1.1,0,0,0,.12.06.39.39,0,0,1,.29.19h0c.08.05.14.13.22.17h0c.07.16.28.1.36.24h0c.09,0,.15.13.23.18h0c.09.14.3.09.38.25l0,0a.6.6,0,0,1,.23.19h0a.75.75,0,0,0,.2.15.11.11,0,0,0,.13.07.43.43,0,0,1,.27.2h0c.08.05.15.13.23.18h0c.08.14.3.08.37.25l0,0a.48.48,0,0,1,.23.19h0a2,2,0,0,0,.23.17h0c.08.15.31.09.37.26l0,0a.43.43,0,0,1,.24.2h0a1.3,1.3,0,0,1,.23.18h0a.58.58,0,0,0,.19.15.1.1,0,0,0,.11.08.34.34,0,0,1,.29.21l0,0a.63.63,0,0,1,.23.2h0l.22.19h0a.47.47,0,0,0,.2.17l0,0c.06.15.29.09.34.26l0,0a.43.43,0,0,1,.24.2h0a.83.83,0,0,1,.23.19h0l.22.19h0a.52.52,0,0,0,.19.17l0,0c.06.16.3.09.34.27l0,0a.32.32,0,0,1,.23.22l0,0a.4.4,0,0,1,.23.21v0a.73.73,0,0,1,.22.21h0a2.09,2.09,0,0,1,.22.2h0a1.24,1.24,0,0,0,.21.18h0a.47.47,0,0,0,.19.18l0,0a.28.28,0,0,0,.18.17l0,0c.05.16.29.09.33.27l0,0a.28.28,0,0,1,.23.22l0,0a.28.28,0,0,1,.23.21l0,0a.34.34,0,0,1,.23.22l0,0a.41.41,0,0,1,.23.22l0,0a.47.47,0,0,1,.22.22l0,0a.47.47,0,0,1,.22.22h0a.41.41,0,0,1,.22.21h0a.45.45,0,0,1,.22.21v0a.77.77,0,0,1,.22.22h0a.63.63,0,0,1,.22.21h0a.55.55,0,0,1,.21.22h0a.47.47,0,0,1,.22.22l0,0a.47.47,0,0,1,.22.22l0,0a.47.47,0,0,1,.22.22h0a.37.37,0,0,1,.22.22l0,0a.36.36,0,0,1,.22.23l0,0a.32.32,0,0,1,.22.23l0,0a.29.29,0,0,1,.21.23l0,0c.18,0,.12.28.27.33l0,0a.29.29,0,0,0,.17.17l0,0a.55.55,0,0,0,.18.19h0a1.29,1.29,0,0,0,.19.21h0c.06.08.14.14.19.22h0a.7.7,0,0,1,.2.22h0a.45.45,0,0,1,.21.22h0a.33.33,0,0,1,.21.23l0,0c.17,0,.11.28.27.34l0,0a.44.44,0,0,0,.17.19h0l.18.22h0a1.1,1.1,0,0,1,.2.23l0,0a.45.45,0,0,1,.21.24l0,0a.37.37,0,0,1,.22.29.09.09,0,0,0,.08.11.34.34,0,0,0,.15.18h0c0,.08.12.14.18.22h0a.69.69,0,0,1,.19.23v0a.38.38,0,0,1,.21.29.09.09,0,0,0,.07.11.4.4,0,0,0,.16.18h0c0,.08.13.15.18.23h0a.5.5,0,0,1,.2.23l0,0c.16.06.11.29.25.36v0a1.32,1.32,0,0,0,.18.22h0a.56.56,0,0,1,.2.23l0,0c.17.07.11.29.26.37h0a1.3,1.3,0,0,0,.18.23h0a.46.46,0,0,1,.19.24l0,0c.18.07.13.29.26.38h0a.87.87,0,0,1,.19.23l0,0c.15.08.1.29.24.37v0c0,.08.13.14.18.23v0a.39.39,0,0,1,.19.29.1.1,0,0,0,.06.12l.16.21h0a.46.46,0,0,1,.19.28.11.11,0,0,0,.06.13,1.56,1.56,0,0,0,.16.2h0a.41.41,0,0,1,.18.29.09.09,0,0,0,.06.11c0,.08.11.15.16.22h0c.14.08.09.29.23.37v0c.05.09.13.14.17.23h0c.15.09.11.29.22.4h0s.06.09,0,.12,0,.06-.07.06l0,0a.36.36,0,0,1-.29.21c-1.73.91-3.34,2-5,3l-18.33,11.32-.95.57c-.31-.09-.39-.37-.54-.59-6.44-9.66-15.33-15.74-26.74-17.87a40.59,40.59,0,1,0,26.63,62.12c.11-.17.23-.34.33-.51s.35-.25.58-.1l2.5,1.55,20.91,12.91c.29.18.58.34.88.5.06,0,.08.07.07.12s0,.07,0,.07h0c-.11.12-.07.32-.22.41v0c0,.09-.12.15-.17.24v0c-.14.08-.09.28-.23.37h0l-.16.21a.1.1,0,0,0-.06.12.43.43,0,0,1-.18.29h0a1.66,1.66,0,0,0-.16.21.11.11,0,0,0-.06.13.49.49,0,0,1-.19.28h0a1.92,1.92,0,0,0-.16.21.09.09,0,0,0-.06.11.39.39,0,0,1-.19.29h0c-.05.08-.13.14-.18.23h0c-.14.08-.09.3-.24.37h0a1.37,1.37,0,0,1-.19.23h0c-.13.09-.08.31-.26.37l0,0a.46.46,0,0,1-.19.24h0a1.74,1.74,0,0,0-.18.22v0c-.15.08-.09.3-.26.37l0,0a.53.53,0,0,1-.2.24h0c-.06.08-.13.14-.18.22v0c-.14.08-.09.3-.25.36l0,0a.48.48,0,0,1-.2.24h0c-.05.08-.13.14-.18.22h0a.55.55,0,0,0-.16.18.1.1,0,0,0-.07.12.38.38,0,0,1-.21.28v0a.54.54,0,0,1-.19.23h0a1.32,1.32,0,0,0-.18.22h0a.35.35,0,0,0-.15.17.1.1,0,0,0-.08.12.35.35,0,0,1-.22.28l0,0a.47.47,0,0,1-.21.23h0a1,1,0,0,1-.2.22h0l-.18.21v0a.39.39,0,0,0-.17.19l0,0c-.16.06-.1.29-.27.34l0,0a.37.37,0,0,1-.21.23l0,0a.52.52,0,0,1-.21.23h0a.83.83,0,0,1-.2.22h0a1.9,1.9,0,0,1-.19.21h0a1.8,1.8,0,0,0-.19.2h0a.58.58,0,0,0-.18.2l0,0a.33.33,0,0,0-.17.18l0,0c-.16.06-.1.3-.28.33l0,0a.27.27,0,0,1-.21.23l0,0a.32.32,0,0,1-.22.23l0,0a.34.34,0,0,1-.22.22l0,0a.38.38,0,0,1-.22.23l0,0a.43.43,0,0,1-.22.22h0a.47.47,0,0,1-.22.22l0,0a.47.47,0,0,1-.22.22v0a.52.52,0,0,1-.21.23l0,0a.77.77,0,0,1-.22.22h0a.73.73,0,0,1-.22.21h0a.5.5,0,0,1-.22.21v0a.43.43,0,0,1-.22.22l0,0a.43.43,0,0,1-.22.22h0a.47.47,0,0,1-.22.22l0,0a.4.4,0,0,1-.23.21l0,0a.32.32,0,0,1-.23.22l0,0a.3.3,0,0,1-.23.22l0,0a.28.28,0,0,1-.23.22l0,0c0,.18-.28.12-.33.28l0,0a.3.3,0,0,0-.18.17l0,0a.66.66,0,0,0-.19.18h0a1.29,1.29,0,0,0-.21.19h0a2.09,2.09,0,0,1-.22.2h0a.7.7,0,0,1-.22.2h0a.43.43,0,0,1-.23.21l0,0a.29.29,0,0,1-.23.21l0,0c0,.17-.28.11-.34.27l0,0a.52.52,0,0,0-.19.17h0a1.32,1.32,0,0,0-.22.18h0a1.1,1.1,0,0,1-.23.2h0a.43.43,0,0,1-.24.2l0,0c-.05.16-.28.1-.34.26l0,0a.55.55,0,0,0-.2.17h0c-.08.05-.14.13-.22.18h0a.74.74,0,0,1-.23.2l0,0a.36.36,0,0,1-.29.21.09.09,0,0,0-.11.07.49.49,0,0,0-.19.16h0a2.11,2.11,0,0,1-.23.19h0a.43.43,0,0,1-.24.2l0,0c-.06.18-.29.12-.37.26h0c-.09.05-.15.13-.23.18h0a.45.45,0,0,1-.23.2l0,0c-.07.17-.29.12-.37.26h0c-.08,0-.15.13-.23.18v0a.37.37,0,0,1-.27.2.11.11,0,0,0-.13.08.59.59,0,0,0-.2.15h0a.58.58,0,0,1-.23.18h0c-.08.15-.29.1-.38.24h0c-.08.05-.14.13-.23.18v0c-.08.15-.29.09-.36.24h0c-.08,0-.14.12-.22.17h0a.4.4,0,0,1-.29.2.1.1,0,0,0-.12.06l-.21.16h0a.39.39,0,0,1-.29.19.09.09,0,0,0-.11.06l-.22.16h0c-.08.14-.29.09-.38.23h0c-.08.05-.14.14-.24.17l0,0c-.08.16-.29.11-.39.24h0a.57.57,0,0,1-.28.18.09.09,0,0,0-.13.06l-.22.15h0c-.09.14-.29.1-.39.23h0a.71.71,0,0,1-.28.18.11.11,0,0,0-.14.06l-.22.15h0c-.09.14-.29.1-.4.22h0a.45.45,0,0,1-.3.18h-.06l0,.05a.87.87,0,0,1-.26.16.11.11,0,0,0-.14.06l-.23.15,0,0c-.09.15-.29.12-.41.23h0c-.1.13-.3.09-.4.22h0c-.11.12-.3.08-.4.21h0c-.11.1-.3.06-.4.2h0a.66.66,0,0,1-.29.17H1160l0,.05a.64.64,0,0,1-.28.15h-.07l0,.05a.54.54,0,0,1-.29.15h-.07l-.05.05a.66.66,0,0,1-.28.16h-.07l0,0a.59.59,0,0,1-.3.16h-.06l0,.05c-.11.1-.3.06-.39.19h0c-.12.11-.3.08-.41.2h0c-.11.12-.3.09-.43.19a.2.2,0,0,0-.18.06l-.24.14a.14.14,0,0,0-.16.05.74.74,0,0,1-.28.14h-.07l-.06,0c-.11.11-.29.07-.4.19h0c-.12.12-.31.09-.44.19a.16.16,0,0,0-.17.05.74.74,0,0,1-.28.14h-.07l0,0c-.12.11-.31.07-.43.18h-.1l-.09.05a.68.68,0,0,1-.27.13h-.07l-.06,0c-.12.11-.3.08-.43.18h-.1l-.08,0c-.12.09-.29.05-.4.17h0c-.13.12-.32.11-.47.18h-.08l-.06,0c-.13.11-.31.08-.44.17h-.09l-.08,0c-.13.1-.3.07-.43.17h-.09l-.09,0c-.13.09-.3.06-.42.16h-.1l-.08,0c-.13.09-.31.06-.43.17h-.1l-.08,0c-.13.09-.31.07-.44.16h-.09l-.08,0a3.57,3.57,0,0,1-.46.16h-.08l-.06,0c-.18.17-.45,0-.61.19l-.21,0c-.13.08-.3.07-.44.15H1147l-.07,0c-.18.16-.45,0-.63.18h-.09l-.09,0a2.13,2.13,0,0,1-.49.15l-.32.06c-.16.08-.33.09-.48.15l-.33,0c-.19.13-.45,0-.63.17h-.09l-.09,0c-.2.14-.46,0-.66.17l-.36.05c-.19.12-.45,0-.64.16l-.37,0c-.2.12-.46,0-.66.15l-.35,0c-.26.16-.59,0-.84.16l-.38,0c-.26.16-.59,0-.86.16l-.55.05c-.28.14-.6,0-.88.15l-.75.05c-.33.16-.72,0-1.05.16a2.87,2.87,0,0,0-1,.05c-.47.17-1-.06-1.46.15a7.6,7.6,0,0,0-1.58.05,59.42,59.42,0,0,1-6.26,0,6.86,6.86,0,0,0-1.57-.05c-.47-.21-1,0-1.47-.16a3,3,0,0,0-1,0c-.34-.17-.73,0-1.08-.15a1.64,1.64,0,0,0-.73-.05c-.28-.15-.61,0-.89-.16l-.54,0c-.21-.12-.46,0-.67-.15l-.56-.05c-.2-.13-.45,0-.66-.15l-.53-.06c-.22-.12-.47,0-.68-.16l-.35,0c-.2-.12-.46,0-.67-.16l-.32-.05a4.5,4.5,0,0,1-.49-.14l-.36-.05c-.2-.14-.46,0-.65-.17l-.08,0h-.1c-.18-.16-.44,0-.63-.17l-.08,0h-.1c-.18-.16-.44,0-.63-.17l-.08-.05h-.09c-.13-.08-.3-.07-.44-.15l-.33-.06a2.67,2.67,0,0,1-.48-.15l-.08-.05h-.09c-.13-.09-.3-.08-.43-.15L1108,291a1.76,1.76,0,0,1-.49-.16l-.06-.05-.08,0a2.54,2.54,0,0,1-.46-.17l-.08,0h-.08c-.14-.08-.32-.07-.45-.17l-.07,0h-.09c-.14-.09-.32-.07-.45-.17l-.07-.05h-.08c-.14-.08-.32-.06-.46-.17l-.06-.05h-.07a1.62,1.62,0,0,1-.48-.17h0c-.1-.12-.27-.09-.4-.17l-.08-.05h-.1c-.12-.1-.3-.07-.43-.17l-.06-.05h-.08c-.15-.08-.34-.06-.47-.18h0c-.11-.12-.29-.09-.41-.18l-.07-.05h-.08c-.15-.09-.33-.07-.46-.19h0c-.11-.12-.28-.08-.4-.18l-.06-.05h-.08a.82.82,0,0,1-.26-.14.18.18,0,0,0-.18,0c-.13-.1-.32-.08-.44-.19h0c-.1-.13-.28-.09-.4-.19l0-.05h-.08a.65.65,0,0,1-.27-.15.15.15,0,0,0-.16,0c-.09,0-.16-.1-.25-.14a.16.16,0,0,0-.17,0c-.13-.1-.32-.07-.44-.21h0c-.12-.11-.3-.08-.41-.2h0c-.11-.12-.3-.08-.41-.2h0c-.11-.12-.29-.09-.41-.2h0c-.1-.13-.29-.09-.4-.2h0c-.11-.13-.3-.09-.41-.21h0c-.11-.12-.3-.08-.41-.21h0c-.12-.12-.31-.08-.41-.22h0c-.12-.11-.32-.07-.41-.22h0a1.64,1.64,0,0,0-.22-.14.13.13,0,0,0-.15-.06.82.82,0,0,1-.25-.16.11.11,0,0,0-.14-.05.68.68,0,0,1-.28-.17h0c-.09-.14-.29-.1-.39-.22h0c-.11-.12-.31-.07-.41-.22h0l-.22-.15a.13.13,0,0,0-.14-.06.68.68,0,0,1-.28-.17h0c-.1-.13-.3-.08-.39-.22h0a1.37,1.37,0,0,0-.21-.15.13.13,0,0,0-.14-.07.62.62,0,0,1-.28-.17h0c-.1-.14-.3-.09-.39-.24v0l-.22-.16a.1.1,0,0,0-.12-.06.39.39,0,0,1-.28-.19h0a1,1,0,0,0-.2-.15.12.12,0,0,0-.14-.07.59.59,0,0,1-.28-.18h0a.75.75,0,0,0-.2-.15.13.13,0,0,0-.15-.07.55.55,0,0,1-.26-.19h0a.56.56,0,0,0-.2-.14.13.13,0,0,0-.14-.08.61.61,0,0,1-.27-.18h0a.7.7,0,0,0-.19-.15.14.14,0,0,0-.14-.08.44.44,0,0,1-.27-.19h0a1.56,1.56,0,0,0-.2-.16.09.09,0,0,0-.12-.06.43.43,0,0,1-.29-.2h0c-.09-.05-.15-.13-.23-.18h0c-.09-.14-.31-.08-.37-.25l0,0a.46.46,0,0,1-.24-.19h0a1.3,1.3,0,0,0-.23-.18h0c-.08-.15-.3-.09-.37-.25l0,0a.56.56,0,0,1-.23-.2h0l-.22-.18h0c-.08-.14-.3-.09-.36-.26l0,0a.43.43,0,0,1-.24-.2h0c-.08-.05-.14-.13-.22-.19h0a.55.55,0,0,0-.18-.16.09.09,0,0,0-.12-.07.37.37,0,0,1-.28-.22l0,0a.5.5,0,0,1-.23-.2h0a2,2,0,0,1-.22-.19h0a.7.7,0,0,0-.2-.18h0c-.06-.16-.29-.1-.34-.27l0,0a.33.33,0,0,1-.24-.2h0a.56.56,0,0,1-.23-.2h0c-.08-.06-.14-.13-.22-.2h0a.91.91,0,0,0-.21-.18h0a.39.39,0,0,0-.19-.17l0,0c-.06-.16-.3-.09-.34-.27l0,0a.35.35,0,0,1-.23-.21h0a.4.4,0,0,1-.23-.21l0,0a.67.67,0,0,1-.23-.21h0a1,1,0,0,1-.21-.2h0l-.21-.19h0a.91.91,0,0,0-.21-.18h0a.58.58,0,0,0-.19-.19h0a.37.37,0,0,0-.19-.18l0,0a.26.26,0,0,0-.17-.17l0,0a.2.2,0,0,0-.15-.14.13.13,0,0,0-.12-.1.3.3,0,0,1-.27-.23l0,0a.28.28,0,0,1-.23-.23l0,0a.26.26,0,0,1-.23-.22l0,0a.25.25,0,0,1-.22-.22l0,0a.26.26,0,0,1-.22-.23l0,0a.28.28,0,0,1-.23-.23l0,0a.26.26,0,0,1-.23-.22l0,0a.25.25,0,0,1-.22-.22l0,0a.26.26,0,0,1-.22-.23l0,0a.3.3,0,0,1-.23-.27c0-.07,0-.1-.1-.12a.18.18,0,0,0-.14-.14l0,0a.27.27,0,0,0-.16-.17l0,0a.41.41,0,0,0-.18-.19v0a.66.66,0,0,0-.18-.19h0a1.9,1.9,0,0,0-.19-.21h0l-.19-.21h0a2.09,2.09,0,0,1-.2-.22h0a.67.67,0,0,1-.21-.23l0,0a.4.4,0,0,1-.21-.23l0,0a.32.32,0,0,1-.22-.23l0,0c-.18,0-.11-.28-.27-.34l0,0a.39.39,0,0,0-.17-.19h0a.91.91,0,0,0-.18-.21h0a2.09,2.09,0,0,1-.2-.22h0a.56.56,0,0,1-.2-.23l0,0a.32.32,0,0,1-.21-.24l0,0c-.17,0-.11-.29-.26-.36l0,0a.86.86,0,0,0-.18-.2h0a1.37,1.37,0,0,1-.19-.22h0a.5.5,0,0,1-.2-.23l0,0c-.16-.06-.1-.29-.26-.35l0,0a.55.55,0,0,0-.17-.2h0a2,2,0,0,1-.19-.22h0a.38.38,0,0,1-.19-.24l0,0c-.18-.05-.12-.28-.26-.36h0c0-.09-.13-.15-.18-.23h0a.46.46,0,0,1-.19-.24l0,0c-.17-.07-.11-.29-.26-.37h0a1.3,1.3,0,0,0-.18-.23h0a.46.46,0,0,1-.19-.24l0,0c-.17-.06-.12-.28-.25-.37h0a1.37,1.37,0,0,1-.19-.23l0,0c-.15-.08-.09-.29-.25-.37v0a2,2,0,0,0-.17-.23v0a.44.44,0,0,1-.19-.29.1.1,0,0,0-.07-.12.78.78,0,0,0-.16-.2h0a.5.5,0,0,1-.19-.24l0,0c-.17-.07-.12-.28-.24-.39h0c-.07-.07-.16-.13-.18-.24l0,0c-.17-.07-.13-.28-.25-.39h0a.48.48,0,0,1-.19-.29.1.1,0,0,0-.06-.12,1.77,1.77,0,0,0-.16-.22v0c-.13-.09-.08-.3-.23-.38v0c0-.08-.13-.14-.17-.24l0,0c-.15-.08-.11-.29-.23-.39h0a.53.53,0,0,1-.18-.28.11.11,0,0,0-.06-.13,1.77,1.77,0,0,0-.16-.22h0c-.15-.09-.1-.29-.23-.39h0a.59.59,0,0,1-.18-.29.09.09,0,0,0,0-.12l-.16-.23,0,0c-.16-.09-.12-.29-.23-.41h0c-.14-.1-.09-.3-.22-.4h0a.52.52,0,0,1-.18-.3.07.07,0,0,0,0-.11.65.65,0,0,1-.15-.27.13.13,0,0,0-.06-.14l-.15-.22v0c-.15-.1-.12-.3-.22-.42h0c-.14-.1-.11-.29-.21-.41h0c-.13-.1-.1-.29-.21-.41h0c-.14-.11-.1-.3-.21-.41h0c-.13-.1-.09-.29-.21-.41h0c-.13-.11-.1-.3-.2-.42h0c-.13-.1-.1-.29-.21-.41h0c-.14-.11-.11-.3-.2-.42h0c-.15-.11-.13-.31-.21-.45a.15.15,0,0,0-.06-.16.77.77,0,0,1-.14-.27.1.1,0,0,0,0-.13c-.1-.11-.06-.29-.19-.39h0c-.11-.12-.08-.3-.19-.42h0c-.13-.12-.11-.31-.19-.45a.14.14,0,0,0-.05-.16.62.62,0,0,1-.15-.29c0-.05,0-.08,0-.11s-.08-.3-.18-.42h0c-.14-.12-.12-.31-.19-.47a.1.1,0,0,0,0-.13c-.11-.13-.08-.3-.18-.42h0c-.14-.13-.14-.32-.2-.49s0-.09,0-.11-.09-.32-.18-.46a.14.14,0,0,0,0-.16c-.09-.12-.07-.29-.17-.41h0c-.21-.16,0-.45-.22-.61h0a1.5,1.5,0,0,1-.18-.5c0-.05,0-.08,0-.11a1.68,1.68,0,0,1-.17-.49.08.08,0,0,0,0-.12,1.43,1.43,0,0,1-.17-.49.08.08,0,0,0,0-.12c-.18-.16,0-.44-.2-.61h0c-.18-.18,0-.46-.19-.64a.17.17,0,0,0,0-.18,3.53,3.53,0,0,1-.15-.46.11.11,0,0,0,0-.14c-.16-.18,0-.45-.18-.62h0c-.18-.2-.06-.47-.19-.69a.07.07,0,0,0,0-.12c-.17-.19-.05-.46-.18-.66a.11.11,0,0,0,0-.15c-.16-.2,0-.46-.17-.67a.1.1,0,0,0,0-.14c-.16-.2-.06-.48-.17-.69,0,0,0-.09,0-.12-.22-.25,0-.6-.2-.85a.12.12,0,0,0,0-.16c-.19-.26,0-.59-.18-.85a.14.14,0,0,0,0-.16c-.19-.27,0-.6-.18-.87a.09.09,0,0,0,0-.14c-.22-.33,0-.73-.18-1.06a.14.14,0,0,0,0-.16c-.22-.33,0-.74-.18-1.07l0-.35c-.21-.39,0-.86-.17-1.25l0-.37c-.21-.47.06-1-.17-1.45l0-.37c-.24-.74.07-1.52-.18-2.26a1.59,1.59,0,0,0,0-.78,53,53,0,0,1,0-6.67,1.59,1.59,0,0,0,0-.78c.25-.74-.06-1.52.18-2.26l0-.37c.23-.46,0-1,.17-1.45l0-.38c.22-.39,0-.85.17-1.24l0-.35c.19-.34,0-.74.18-1.07a.14.14,0,0,0,0-.16c.21-.33,0-.74.18-1.06a.09.09,0,0,0,0-.14c.18-.27,0-.61.18-.87a.14.14,0,0,0,0-.16c.19-.26,0-.6.18-.85a.12.12,0,0,0,0-.16c.19-.26,0-.61.2-.86a.07.07,0,0,0,0-.11c.11-.22,0-.49.17-.7a.1.1,0,0,0,0-.14c.13-.2,0-.47.17-.67a.1.1,0,0,0,0-.14c.13-.2,0-.47.18-.67a.07.07,0,0,0,0-.12c.13-.21,0-.49.19-.68h0c.17-.18,0-.45.18-.62a.11.11,0,0,0,0-.14,4.26,4.26,0,0,1,.15-.47.16.16,0,0,0,0-.17c.16-.19,0-.46.19-.64h0c.19-.16,0-.44.2-.61s.06-.06,0-.11a1.48,1.48,0,0,1,.17-.5c.05,0,.06-.06,0-.11a1.68,1.68,0,0,1,.17-.49.08.08,0,0,0,0-.12,1.45,1.45,0,0,1,.18-.49h0c.19-.16,0-.45.22-.6h0c.1-.12.08-.29.17-.42a.13.13,0,0,0,0-.16c.09-.14.06-.32.18-.45a.08.08,0,0,0,0-.12c.06-.16.06-.35.2-.48h0c.1-.12.07-.3.18-.42a.1.1,0,0,0,0-.13c.07-.16,0-.35.19-.48v0c.1-.13.07-.31.18-.42s.06-.07,0-.11a.71.71,0,0,1,.15-.3.13.13,0,0,0,.05-.15c.08-.14.06-.33.19-.45h0c.11-.12.08-.3.19-.42h0c.13-.1.09-.28.19-.39a.1.1,0,0,0,0-.13.76.76,0,0,1,.15-.28.14.14,0,0,0,0-.15c.08-.15.06-.34.21-.45h0c.09-.13.06-.31.2-.42h0c.11-.12.08-.31.21-.42h0c.1-.12.07-.3.2-.41h0c.12-.11.08-.3.21-.41h0c.11-.12.07-.31.21-.41h0c.11-.12.08-.31.21-.42h0c.1-.11.07-.31.21-.41v0c.1-.13.07-.33.22-.42v0l.15-.23a.13.13,0,0,0,.06-.14.68.68,0,0,1,.15-.26.08.08,0,0,0,0-.12.5.5,0,0,1,.18-.29h0c.13-.1.08-.29.22-.39h0c.11-.12.07-.32.23-.41l0,0a1.88,1.88,0,0,1,.16-.23.09.09,0,0,0,0-.12.55.55,0,0,1,.18-.29h0c.13-.1.08-.31.23-.4l0,0c.06-.07.11-.15.16-.22a.11.11,0,0,0,.06-.13.53.53,0,0,1,.18-.28c.12-.11.08-.31.23-.4l0,0c0-.09.13-.15.17-.24h0c.15-.09.1-.29.23-.38h0l.16-.21a.11.11,0,0,0,.06-.13.49.49,0,0,1,.19-.28h0c.12-.1.08-.32.25-.39l0,0a.51.51,0,0,1,.18-.25h0c.12-.1.07-.31.24-.39l0,0a.5.5,0,0,1,.19-.24h0a1,1,0,0,0,.16-.2.12.12,0,0,0,.07-.13.42.42,0,0,1,.19-.28h0c0-.08.13-.14.17-.22v0c.16-.07.1-.29.25-.36l0,0a1.12,1.12,0,0,1,.19-.24h0c.13-.09.08-.31.25-.38l0,0a.5.5,0,0,1,.19-.24h0c.06-.08.13-.14.18-.22h0c.15-.08.09-.31.26-.37l0,0a.5.5,0,0,1,.19-.24h0c0-.08.13-.14.18-.22h0c.14-.08.08-.31.26-.37l0,0a.36.36,0,0,1,.19-.24h0a2.11,2.11,0,0,1,.19-.23h0a.68.68,0,0,0,.17-.21l0,0c.16-.07.1-.29.26-.35l0,0a.48.48,0,0,1,.2-.24v0a2.11,2.11,0,0,1,.19-.23h0a.91.91,0,0,0,.18-.21l0,0c.15-.07.09-.3.26-.35l0,0a.32.32,0,0,1,.21-.23l0,0a.56.56,0,0,1,.2-.23h0a1.42,1.42,0,0,1,.2-.22h0a1.18,1.18,0,0,0,.18-.21v0a.35.35,0,0,0,.17-.19l0,0c.16,0,.09-.29.27-.34l0,0a.35.35,0,0,1,.22-.24l0,0a.41.41,0,0,1,.21-.22h0a.73.73,0,0,1,.21-.22h0a1.42,1.42,0,0,1,.2-.22h0c.06-.07.13-.13.19-.21h0a1.8,1.8,0,0,0,.19-.2h0a.7.7,0,0,0,.18-.2l0,0a.42.42,0,0,0,.17-.18l0,0a.27.27,0,0,0,.16-.17l0,0a.2.2,0,0,0,.14-.15.1.1,0,0,0,.1-.11.3.3,0,0,1,.23-.28l0,0a.25.25,0,0,1,.22-.22l0,0a.25.25,0,0,1,.22-.22l0,0a.27.27,0,0,1,.23-.23l0,0a.27.27,0,0,1,.23-.23l0,0a.25.25,0,0,1,.22-.22l0,0a.25.25,0,0,1,.22-.22l0,0a.27.27,0,0,1,.23-.23l0,0a.27.27,0,0,1,.23-.23l0,0a.3.3,0,0,1,.27-.23.12.12,0,0,0,.12-.09.19.19,0,0,0,.15-.15l0,0a.29.29,0,0,0,.17-.17l0,0a.37.37,0,0,0,.19-.18l0,0a.47.47,0,0,0,.19-.18h0a1.29,1.29,0,0,0,.21-.19h0l.21-.2h0a.8.8,0,0,1,.21-.2h0a.64.64,0,0,1,.23-.2h0a.43.43,0,0,1,.23-.21l0,0a.31.31,0,0,1,.23-.21l0,0c0-.17.28-.11.34-.27l0,0a.44.44,0,0,0,.19-.17v0a.91.91,0,0,0,.21-.18h0c.08-.06.14-.14.22-.19h0a.58.58,0,0,1,.23-.21l0,0a.36.36,0,0,1,.24-.21l0,0c.05-.18.28-.12.34-.27l0,0a.55.55,0,0,0,.2-.17h0a1.3,1.3,0,0,1,.22-.19h0a.52.52,0,0,1,.23-.21l0,0a.36.36,0,0,1,.28-.21.1.1,0,0,0,.12-.07.55.55,0,0,0,.18-.16h0c.08-.05.14-.13.22-.18h0a.43.43,0,0,1,.24-.2l0,0c.06-.17.28-.11.36-.26h0l.22-.17h0a.48.48,0,0,1,.23-.19l0,0c.07-.16.29-.11.37-.26h0a2,2,0,0,0,.23-.17h0a.48.48,0,0,1,.24-.2l0,0c.06-.17.28-.12.37-.26h0a1.3,1.3,0,0,1,.23-.18h0a.38.38,0,0,1,.29-.2.1.1,0,0,0,.12-.06,1.56,1.56,0,0,0,.2-.16h0a.48.48,0,0,1,.27-.19.13.13,0,0,0,.14-.07.7.7,0,0,0,.19-.15h0a.64.64,0,0,1,.27-.19.12.12,0,0,0,.14-.07.59.59,0,0,0,.2-.15h0a.53.53,0,0,1,.26-.18.13.13,0,0,0,.15-.08.56.56,0,0,0,.2-.14h0a.47.47,0,0,1,.27-.18.13.13,0,0,0,.14-.07,1,1,0,0,0,.2-.15h0a.46.46,0,0,1,.28-.19.09.09,0,0,0,.12-.05l.22-.16h0c.09-.14.29-.1.39-.23h0a.75.75,0,0,1,.28-.18c.06,0,.1,0,.14-.06l.21-.15h0c.09-.14.29-.09.39-.23h0a.68.68,0,0,1,.28-.17.13.13,0,0,0,.14-.06l.22-.16,0,0c.1-.15.3-.11.41-.23h0c.1-.12.3-.07.39-.21h0a.78.78,0,0,1,.28-.16.13.13,0,0,0,.14-.06,1,1,0,0,1,.25-.15.15.15,0,0,0,.15-.06l.22-.15h0c.09-.14.29-.11.41-.21h0c.1-.13.29-.1.41-.21h0c.11-.12.3-.09.41-.21h0c.11-.11.3-.08.41-.2h0c.11-.12.3-.08.4-.2h0c.12-.11.3-.07.41-.19h0c.11-.12.3-.09.41-.2h0c.11-.13.29-.09.41-.2h0c.12-.13.31-.1.44-.2a.17.17,0,0,0,.17,0,1.65,1.65,0,0,1,.25-.15.14.14,0,0,0,.16-.05.54.54,0,0,1,.27-.14.1.1,0,0,0,.13-.05c.12-.1.3-.06.4-.18h0c.12-.12.31-.09.44-.19a.2.2,0,0,0,.18,0,.82.82,0,0,1,.26-.14.11.11,0,0,0,.14,0c.12-.09.29-.06.4-.17h0c.13-.13.31-.11.46-.19a.13.13,0,0,0,.15,0c.12-.09.3-.05.41-.17h0c.13-.12.32-.11.47-.18a.11.11,0,0,0,.14,0c.13-.09.31-.06.43-.17a.19.19,0,0,0,.18,0c.13-.08.3-.05.4-.17l.21-.05a1.34,1.34,0,0,1,.27-.13.09.09,0,0,0,.13,0c.14-.11.32-.1.46-.17a.14.14,0,0,0,.15,0c.13-.1.31-.09.45-.17a.14.14,0,0,0,.16,0c.13-.09.31-.08.45-.16a.14.14,0,0,0,.16,0c.14-.1.31-.09.46-.16a.11.11,0,0,0,.14,0,1.78,1.78,0,0,1,.49-.17l.33-.06c.13-.08.3-.06.43-.16a.14.14,0,0,0,.17,0,2.67,2.67,0,0,1,.48-.15l.33-.07c.14-.07.31-.06.44-.15a.14.14,0,0,0,.17,0c.19-.15.45,0,.63-.17a.17.17,0,0,0,.18,0c.19-.14.45,0,.63-.17a.15.15,0,0,0,.18,0c.19-.14.45,0,.65-.16l.36-.06c.16-.06.33-.08.49-.14l.32,0c.21-.13.47,0,.67-.16l.35-.05c.21-.12.46,0,.68-.15l.53-.06c.21-.11.46,0,.66-.15l.56-.06c.21-.1.46,0,.67-.14l.75-.06c.21-.1.46,0,.68-.14a1.64,1.64,0,0,0,.73-.06c.34-.15.74,0,1.08-.15a4,4,0,0,0,1.15-.06c.42-.15.87.05,1.28-.14l2-.06a50.89,50.89,0,0,1,5.66,0,10.56,10.56,0,0,0,1.78.05c.47.21,1,0,1.46.15a2.87,2.87,0,0,0,1,.05c.33.19.72,0,1.05.15l.75.06c.28.15.6,0,.87.15l.56,0c.2.12.45,0,.66.14l.58,0c.19.15.43.05.63.15l.56.06c.2.13.46,0,.66.16l.37,0C1142.25,156.09,1142.51,156,1142.7,156.11Z"/><path class="cls-14" d="M1198.18,243.32l.45.38A.37.37,0,0,1,1198.18,243.32Z"/><path class="cls-14" d="M1195.37,239.43a.25.25,0,0,1,.19.23A.28.28,0,0,1,1195.37,239.43Z"/><path class="cls-14" d="M1195.78,240a.27.27,0,0,1,.2.24A.27.27,0,0,1,1195.78,240Z"/><path class="cls-14" d="M1196,240.25a.25.25,0,0,1,.18.23Z"/><path class="cls-14" d="M1196.8,241.44a.25.25,0,0,1,.19.24A.27.27,0,0,1,1196.8,241.44Z"/><path class="cls-14" d="M1197,241.67a.23.23,0,0,1,.18.22Z"/><path class="cls-14" d="M1197.39,242.26a.25.25,0,0,1,.19.24A.31.31,0,0,1,1197.39,242.26Z"/><path class="cls-14" d="M1197.81,242.86a.24.24,0,0,1,.19.24A.27.27,0,0,1,1197.81,242.86Z"/><path class="cls-14" d="M1198,243.08a.24.24,0,0,1,.18.23Z"/><path class="cls-15" d="M1203.44,243.32a.22.22,0,0,1-.18-.21Z"/><polygon class="cls-16" points="1201.82 241.3 1201.82 241.29 1201.82 241.29 1201.82 241.3"/><path class="cls-16" d="M1196.8,241.44h0Z"/><path class="cls-16" d="M1197.39,242.26h0Z"/><path class="cls-16" d="M1196.38,240.84h0Z"/><polygon class="cls-16" points="1196.98 241.67 1196.99 241.68 1196.99 241.68 1196.98 241.67"/><polygon class="cls-16" points="1195.97 240.25 1195.97 240.26 1195.98 240.26 1195.97 240.25"/><polygon class="cls-16" points="1197.99 243.09 1198 243.09 1198.01 243.1 1197.99 243.09"/><path class="cls-16" d="M1197.81,242.86h0l0,0Z"/><path class="cls-16" d="M1195.78,240h0Z"/><path class="cls-16" d="M1195.37,239.43h0l0,0Z"/><rect class="cls-13" x="1190.33" y="243.4" width="3.93" height="0.29"/><rect class="cls-13" x="1198.65" y="243.4" width="4.7" height="0.29"/><path class="cls-16" d="M1203.38,243.69h0s0,0,0,0Z"/><path class="cls-13" d="M1181.38,215.82a75.84,75.84,0,0,0,0-7.83c0-.71,0-1.42,0-2.13,0-.46.12-.67.62-.66,1,0,2,0,3,0,.51,0,.66.2.62.66a4.34,4.34,0,0,0,0,.51v15.17c0,.2,0,.4,0,.6s-.1.51-.46.51q-1.52,0-3,0c-.44,0-.56-.31-.74-.59-1.43-2.28-2.86-4.57-4.3-6.85-.6-1-1.21-1.94-1.87-3a1.15,1.15,0,0,0-.14.82c0,2.9.08,5.79.13,8.69,0,.76.2.93-.85.91s-1.89,0-2.83,0c-.5,0-.66-.19-.65-.65s0-1.22,0-1.82V206.53c0-.27,0-.54,0-.81s.2-.52.57-.52c1,0,1.89,0,2.83,0,.52,0,.7.32.91.67q2.64,4.3,5.3,8.61Z"/><path class="cls-13" d="M1125.32,216.12a8.74,8.74,0,0,1-6,6.39,9.12,9.12,0,0,1-11.72-6.23,9.16,9.16,0,0,1,17.28-5.91c.58,1.41.58,1.42-.93,1.42-.77,0-1.55,0-2.33,0a1.32,1.32,0,0,1-1.44-.78,4,4,0,0,0-2.91-2.14,4.42,4.42,0,0,0-5.19,3.14,5.25,5.25,0,0,0,1.31,5.77,4.28,4.28,0,0,0,6.48-.5c.21-.27.38-.56.56-.84a.61.61,0,0,1,.58-.33Z"/><path class="cls-13" d="M1160.54,232.58c0,1.69,0,3.37,0,5.06a6.1,6.1,0,0,1-6.46,6.29,9.84,9.84,0,0,1-1.71-.12c-3.31-.68-5.1-2.75-5.19-6.14-.06-2.5,0-5,0-7.49,0-1.12,0-2.23,0-3.34,0-.53.17-.72.7-.71,1.05,0,2.1,0,3.14,0,.48,0,.67.16.65.64s0,1.21,0,1.82c0,2.7,0,5.4,0,8.1a6.88,6.88,0,0,0,.2,1.7A2.07,2.07,0,0,0,1154,240a2,2,0,0,0,2-1.77,12.31,12.31,0,0,0,.09-1.72v-9.31c0-1.12-.08-1.09,1.12-1.09h2.43c.92,0,.92,0,.93,1v5.47Z"/><path class="cls-13" d="M1120,232.51c0-1.86,0-3.71,0-5.57,0-.79,0-.8.76-.81h2.93c.76,0,.77,0,.78.8v8.6c0,.74,0,1.48,0,2.22a2.13,2.13,0,0,0,1.83,2.21,2,2,0,0,0,2.43-1.57,6.37,6.37,0,0,0,.15-1.5q0-4.81,0-9.61v-.71c0-.29.13-.44.42-.44H1133a.34.34,0,0,1,.39.36c0,.13,0,.27,0,.4,0,3.51,0,7,0,10.52a6.23,6.23,0,0,1-2.47,5.28c-2.54,1.92-7.78,1.66-9.77-1.33A6.23,6.23,0,0,1,1120,238c0-1.82,0-3.64,0-5.46Z"/><path class="cls-13" d="M1141.83,213.89V206c0-.77,0-.79.78-.79q4.1,0,8.19,0c.73,0,.74,0,.75.73s0,1.68,0,2.53c0,.48-.17.64-.65.64-1.31,0-2.63,0-3.94,0-.83,0-.85,0-.84.82,0,.57-.24,1.27.11,1.66s1.14.16,1.73.18c.88,0,1.76,0,2.63,0s.75,0,.77.72c0,.88,0,1.76,0,2.63,0,.49-.18.65-.66.64-1.07,0-2.15,0-3.23,0-1.58,0-1.35-.21-1.37,1.42,0,.27,0,.54,0,.81,0,.52.16.72.68.7,1.18,0,2.36,0,3.54,0h.71a.44.44,0,0,1,.5.49v3c0,.44-.31.44-.63.44h-8.19c-.89,0-.9,0-.9-.87Z"/><path class="cls-13" d="M1135.86,234.85v-7.68c0-1,0-1,1-1h7.69c.91,0,.91,0,.93.88,0,.7,0,1.41,0,2.12,0,1,0,1-1,1s-2.29,0-3.43,0c-.77,0-.78,0-.79.79,0,.51,0,1,0,1.52s.16.6.59.59h3.54c1,0,1,0,1,.93q0,1.06,0,2.13c0,.91,0,.92-1,.92H1141c-.75,0-.77,0-.77.8,0,1.69,0,3.37,0,5.06,0,.77,0,.78-.8.79s-1.82,0-2.73,0-.79,0-.79-.81c0-2.43,0-4.85,0-7.28Z"/><path class="cls-13" d="M1165.17,236.84c0-2,0-4,0-6,0-.73,0-.74-.72-.76s-1.42,0-2.13,0c-.42,0-.6-.14-.59-.58,0-.91,0-1.82,0-2.74,0-.46.14-.67.64-.65.81,0,1.62,0,2.43,0h7.49c.77,0,.78,0,.79.78s0,1.69,0,2.53c0,.48-.15.68-.64.66-.68,0-1.35,0-2,0s-.76,0-.76.81q0,4.11,0,8.2c0,1.28,0,2.57,0,3.85,0,.53-.18.71-.7.69-1,0-2,0-3,0-.71,0-.73,0-.73-.74C1165.17,240.89,1165.17,238.86,1165.17,236.84Z"/><path class="cls-13" d="M1110.93,236.83v-5.77c0-1,0-1-1-1-.57,0-1.15,0-1.72,0s-.75-.13-.72-.68c0-.88,0-1.76,0-2.63,0-.46.11-.67.62-.67,3.37,0,6.75,0,10.12,0,.42,0,.62.12.61.57,0,.95,0,1.89,0,2.84,0,.45-.19.58-.61.57-.71,0-1.42,0-2.12,0-.53,0-.71.17-.7.7,0,1.52,0,3,0,4.55,0,2.5,0,5,0,7.49,0,.78,0,.79-.78.8h-2.73c-1,0-1,0-1-.93C1110.92,240.74,1110.93,238.78,1110.93,236.83Z"/><path class="cls-14" d="M1201.23,227.49a.22.22,0,0,1-.21-.17Z"/><path class="cls-14" d="M1202,228.34a.27.27,0,0,1-.19-.22Z"/><path class="cls-14" d="M1194.77,238.61a.24.24,0,0,1,.19.24A.27.27,0,0,1,1194.77,238.61Z"/><path class="cls-14" d="M1195,238.84a.23.23,0,0,1,.18.22Z"/><polygon class="cls-13" points="1199.75 206.82 1199.75 206.82 1199.74 206.81 1199.75 206.82"/><path class="cls-13" d="M1199.54,206.64h0Z"/><polygon class="cls-13" points="1198.54 206.02 1198.53 206.01 1198.52 206.01 1198.54 206.02"/><polygon class="cls-13" points="1198.33 221.77 1198.33 221.77 1198.33 221.77 1198.33 221.77"/><path class="cls-13" d="M1201.36,208.66h0Z"/><polygon class="cls-13" points="1202.17 210.27 1202.17 210.25 1202.16 210.25 1202.17 210.27"/><polygon class="cls-13" points="1199.96 207.01 1199.96 207.01 1199.96 207.01 1199.96 207.01"/><polygon class="cls-13" points="1198.73 221.57 1198.74 221.57 1198.74 221.56 1198.73 221.57"/><polygon class="cls-13" points="1200.76 207.84 1200.76 207.83 1200.75 207.83 1200.76 207.84"/><path class="cls-13" d="M1201,208.06h0Z"/><path class="cls-13" d="M1201.74,218.53h0Z"/><path class="cls-13" d="M1201.13,219.54l0,0h0Z"/><path class="cls-13" d="M1199.12,221.36Z"/><polygon class="cls-13" points="1200.95 219.75 1200.96 219.75 1200.96 219.74 1200.95 219.75"/><path class="cls-13" d="M1202.61,212.07l0-.34c-.12-.2,0-.47-.16-.67a.14.14,0,0,1,0-.16c-.15-.19,0-.47-.2-.64h0v0h0c-.09-.13-.07-.3-.18-.42h0c-.13-.11-.09-.29-.2-.4h0c-.13-.1-.09-.29-.21-.4h0c-.12-.1-.08-.29-.22-.38h0v0h0a1.3,1.3,0,0,0-.18-.23h0c-.13-.09-.09-.29-.23-.37h0l0,0h0a.45.45,0,0,0-.19-.22h0a.8.8,0,0,0-.2-.21h0l-.2-.21h0l-.19-.2h0l-.2-.2h0a1.24,1.24,0,0,0-.21-.19h0a.43.43,0,0,0-.23-.19h0l0,0h0c-.08-.14-.27-.11-.36-.23h0a.73.73,0,0,0-.26-.17.14.14,0,0,1-.15-.06l-.21-.15h0c-.11-.14-.3-.11-.43-.2a.18.18,0,0,1-.17-.05c-.12-.08-.29,0-.39-.17h0c-.17-.18-.45,0-.62-.19a.19.19,0,0,1-.19,0c-.21-.13-.46,0-.67-.15l-.55-.05c-2.26-.16-4.52,0-6.77-.07-1.33,0-1.22-.15-1.22,1.17v13.06c0,.91,0,1.82,0,2.73,0,.38,0,.66.52.65,2.29-.07,4.58.12,6.87-.1l.34,0c.34-.18.74,0,1.08-.17l.07,0h.08c.2-.13.46,0,.65-.17l.07,0h.07c.15-.07.33-.06.47-.17l.06,0h.07c.16-.06.35-.05.47-.19h0c.12-.1.3-.07.41-.2h0c.11-.1.29-.07.38-.21h0a.66.66,0,0,0,.23-.17h0c.09-.12.29-.09.37-.23h0l0,0h0a.41.41,0,0,0,.22-.19h0a1.24,1.24,0,0,0,.21-.19h0l.21-.19h0l.2-.2h0a1.8,1.8,0,0,0,.19-.21h0a.7.7,0,0,0,.2-.22h0a.35.35,0,0,0,.19-.22l0,0,0,0h0c.15-.08.11-.27.22-.37h0a.44.44,0,0,0,.19-.29.07.07,0,0,1,0-.11,1.19,1.19,0,0,0,.16-.23h0l0,0h0c.22-.13,0-.43.23-.57h0c.11-.13.09-.31.18-.45a.16.16,0,0,1,0-.16,4.19,4.19,0,0,0,.16-.46.11.11,0,0,1,0-.15c.2-.25,0-.59.18-.84a.15.15,0,0,1,0-.17A15.82,15.82,0,0,0,1202.61,212.07Zm-4.9,4.38a3.28,3.28,0,0,1-2.86,2.1c-.73.08-1.48,0-2.22.07-.43,0-.59-.17-.59-.6,0-1.41,0-2.82,0-4.23s0-2.56,0-3.84c0-.9,0-.91,1-.91a9.64,9.64,0,0,1,2.21.15,3.25,3.25,0,0,1,2.31,1.79A6.58,6.58,0,0,1,1197.71,216.45Z"/><polygon class="cls-13" points="1200.76 219.96 1200.76 219.96 1200.77 219.96 1200.76 219.96"/><path class="cls-13" d="M1199.72,221h0Z"/><polygon class="cls-13" points="1199.94 220.76 1199.95 220.76 1199.95 220.76 1199.94 220.76"/><polygon class="cls-16" points="1201.6 236.41 1201.61 236.4 1201.61 236.39 1201.6 236.41"/><polygon class="cls-16" points="1200.8 237.02 1200.81 237.02 1200.81 237.02 1200.8 237.02"/><polygon class="cls-16" points="1199.39 238.25 1199.39 238.25 1199.39 238.25 1199.39 238.25"/><path class="cls-16" d="M1201.79,236.2h0Z"/><path class="cls-16" d="M1202.21,228.57h0Z"/><polygon class="cls-16" points="1202.6 235 1202.61 234.99 1202.61 234.98 1202.6 235"/><polygon class="cls-16" points="1202.43 228.95 1202.42 228.94 1202.42 228.94 1202.43 228.95"/><path class="cls-16" d="M1202.39,235.39h0Z"/><path class="cls-16" d="M1202,236h0Z"/><polygon class="cls-16" points="1202.03 228.34 1202.02 228.33 1202.02 228.33 1202.03 228.34"/><polygon class="cls-16" points="1194.95 238.84 1194.96 238.84 1194.96 238.85 1194.95 238.84"/><path class="cls-16" d="M1200.8,227.15s0,0,0,0h0Z"/><path class="cls-13" d="M1135.8,216.75a5.25,5.25,0,0,0,2.88-1.65,6.11,6.11,0,0,0,.91-6.38,5.17,5.17,0,0,0-4.8-3.45c-2.39-.17-4.79,0-7.18-.07-.46,0-.59.21-.56.62,0,.17,0,.33,0,.5v15.27a2.81,2.81,0,0,1,0,.41c0,.45.11.68.62.66,1,0,2,0,3,0,.49,0,.63-.19.63-.66,0-1.31,0-2.63,0-3.94a1.47,1.47,0,0,1,.13-.84c.25.34.46.6.65.87.94,1.31,1.88,2.63,2.83,3.94.19.26.33.62.74.62h4.82C1138.87,220.6,1137.37,218.72,1135.8,216.75Zm-1.13-3.22a5.5,5.5,0,0,1-3.05.39c-.27,0-.29-.23-.29-.44,0-1.31,0-2.62,0-3.93,0-.36.18-.46.5-.45s.54,0,.87,0a3.85,3.85,0,0,1,1.62.24,2.08,2.08,0,0,1,1.47,2A2.25,2.25,0,0,1,1134.67,213.53Z"/><path class="cls-13" d="M1169.51,222c-.91-2.28-1.81-4.57-2.72-6.85-1.22-3.07-2.45-6.13-3.65-9.21a.9.9,0,0,0-1-.7c-.64.05-1.28,0-1.92,0-.9,0-.91,0-1.24.84q-3.17,7.88-6.32,15.76c-.09.24-.28.47-.12.85.82,0,1.69,0,2.56,0,.66,0,1.44.26,2-.14s.55-1.13.74-1.73a.88.88,0,0,1,1-.7c1.15,0,2.3,0,3.44,0,2.22,0,1.65-.34,2.39,1.73a1.66,1.66,0,0,1,.1.29c.08.4.31.54.72.54,1.38,0,2.76,0,4.28,0C1169.63,222.33,1169.58,222.14,1169.51,222Zm-10.13-5.44a1.22,1.22,0,0,1,0-.34c.52-1.77,1.06-3.54,1.66-5.54.7,2.06,1.26,3.93,1.76,5.88Z"/><path class="cls-13" d="M1187.06,240.47a.09.09,0,0,0,0,.12.51.51,0,0,1-.17.29h0c-.14.09-.09.3-.23.39v0c0,.09-.13.15-.18.23a6.73,6.73,0,0,1-3.92,2.32,8.22,8.22,0,0,1-4.85-.53,5.66,5.66,0,0,1-3.39-4.79,8.65,8.65,0,0,1,0-1c0-3.51,0-7,0-10.52,0-.79,0-.8.76-.81q1.47,0,2.94,0c.75,0,.77,0,.77.82,0,3.26,0,6.53,0,9.8a5.23,5.23,0,0,0,.21,1.8,2.07,2.07,0,0,0,2.17,1.45,1.92,1.92,0,0,0,1.93-1.73,9.15,9.15,0,0,0,.15-1.81c0-3.13,0-6.27,0-9.4,0-.93,0-.93.95-.94l3.44,0c.27.09.19.32.19.51v10.21a.85.85,0,0,1-.08.39,2.76,2.76,0,0,0,0,1c-.19.34,0,.74-.18,1.08a.11.11,0,0,0,0,.14c-.14.2,0,.48-.2.67v0C1187.13,240.17,1187.16,240.35,1187.06,240.47Z"/><path class="cls-13" d="M1187.75,236.84s0,3.12-1.13,4.44l-.35-1.85.91-2.1Z"/><path class="cls-13" d="M1198.65,243.7a.41.41,0,0,1-.4-.15l-3.35-4.69s-.22-.36-.42-.16v-.29h.07l1,0,2.85,3.2Z"/><polygon class="cls-13" points="1194.48 238.7 1194.46 243.31 1194.26 243.5 1194.12 238.52 1194.45 238.48 1194.48 238.7"/><path class="cls-13" d="M1197.31,226.12s5.58-.24,5.92,5.5c0,0,.53,5-3.84,6l.73-3.25,1.11-3-3.58-4.75Z"/><g class="cls-17"><path class="cls-15" d="M1202.63,242.31a.26.26,0,0,1-.18-.22Z"/><polygon class="cls-16" points="1202.63 242.31 1202.63 242.3 1202.63 242.3 1202.63 242.31"/><path class="cls-13" d="M1203.43,243.32h0c0-.08-.13-.14-.18-.21v0c-.13-.08-.09-.28-.24-.35h0l0,0h0a.34.34,0,0,0-.19-.22h0l0,0h0a.66.66,0,0,0-.19-.22h0l-.18-.21h0c-.13-.08-.09-.28-.24-.35h0l0,0h0a.32.32,0,0,0-.19-.22h0l0,0h0a.57.57,0,0,0-.19-.22h0l-.18-.21h0c-.13-.08-.09-.28-.23-.35h0l0,0,0,0a.41.41,0,0,0-.2-.23h0a.55.55,0,0,0-.19-.21h0l-.17-.21,0,0c-.13-.08-.09-.28-.23-.35h0l0,0h0a.39.39,0,0,0-.2-.22h0a.55.55,0,0,0-.19-.21h0a1.84,1.84,0,0,1-.17-.22h0c-.13-.08-.09-.28-.23-.35h0l0,0h0a.39.39,0,0,0-.2-.22h0v0h0a.66.66,0,0,0-.19-.22h0a1.2,1.2,0,0,1-.17-.21h0c-.15-.23.08-.28.18-.4h0c.17-.17.45,0,.61-.2h0c.12-.11.3-.08.41-.19h0c.1-.12.29-.08.39-.21h0a2.29,2.29,0,0,0,.59-.43v0a.41.41,0,0,0,.22-.21h0v0h0a.37.37,0,0,0,.19-.2h0a.34.34,0,0,0,.2-.22h0l0,0h0c.15-.07.12-.27.23-.37h0a.58.58,0,0,0,.18-.23h0l0,0h0c.14-.09.13-.27.2-.39h0v0h0c.16-.12.14-.32.2-.48a.08.08,0,0,1,0-.11c.17-.17,0-.45.19-.61h0c.24-.32,0-.74.19-1.07v-1.1c-.2-.33,0-.74-.18-1.07a.1.1,0,0,1,0-.13c-.07-.15-.06-.33-.16-.47a.14.14,0,0,1,0-.15c-.08-.15-.06-.34-.19-.46h0c-.11-.12-.07-.3-.21-.41h0c-.09-.11-.07-.29-.21-.38h0l0,0h0a.53.53,0,0,0-.19-.23h0c0-.07-.12-.13-.18-.21h0a.61.61,0,0,1-.17-.19l0,0a.42.42,0,0,1-.17-.18l0,0a.37.37,0,0,1-.18-.17l0,0a1.2,1.2,0,0,1-.21-.17h0a.71.71,0,0,0-.23-.19s0,0,0,0v0h0c-.09-.13-.28-.1-.38-.22h0c-.11-.12-.3-.08-.4-.2h0c-.12-.12-.3-.1-.44-.19a.17.17,0,0,1-.17,0c-.18-.15-.44,0-.62-.18l-.39,0c-.34-.16-.73,0-1.07-.15h-7.13c-.21.06-.19.24-.19.4,0,5.48,0,10.95,0,16.43,0,.3,0,.62.34.75a36.8,36.8,0,0,1,3.93,0c.33-.22.16-.55.17-.82,0-1.18,0-2.35,0-3.52,0-.27-.24-.72.33-.77v0a.36.36,0,0,0,.19.23h0c0,.08.12.14.17.22h0c.13.09.1.28.23.36h0l0,0,0,0a.53.53,0,0,0,.19.23h0c.11.1.08.3.23.37h0l0,0h0a.38.38,0,0,0,.18.23h0c0,.08.12.14.18.22h0c.14.08.1.28.23.36h0l0,0h0a.71.71,0,0,0,.19.23h0c.11.1.08.29.23.37h0l0,0h0a.34.34,0,0,0,.19.22h0a1.28,1.28,0,0,0,.17.22v0c.13.08.09.28.23.36h0l0,0h0a.66.66,0,0,0,.18.23h0c.12.1.08.3.23.37h0l0,0,0,0a.37.37,0,0,0,.19.23h0v0h0c0,.09.12.14.17.22h0a1,1,0,0,0,.45.38c1.59-.07,3.17-.07,4.75,0C1203.59,243.6,1203.57,243.46,1203.43,243.32Zm-6.5-8.5a9.57,9.57,0,0,1-2,.13c-.38,0-.55-.18-.54-.56,0-.64,0-1.28,0-1.91s0-1.21,0-1.82c0-.37.13-.57.52-.55a16.89,16.89,0,0,1,2,.08,2.16,2.16,0,0,1,2,2.3A2.25,2.25,0,0,1,1196.93,234.82Z"/></g><polygon class="cls-16" points="1199.92 238.93 1200.01 239.04 1199.97 239.12 1199.9 239 1199.92 238.93"/><polygon class="cls-16" points="1199.92 238.93 1199.9 238.89 1199.89 238.91 1199.91 238.94 1199.92 238.93"/><polygon class="cls-13" points="1203.26 243.11 1199.68 238.61 1201.12 241.48 1202.61 242.61 1203.26 243.11"/><path class="cls-13" d="M1213.43,225.27a9.34,9.34,0,1,0,9.34,9.34A9.35,9.35,0,0,0,1213.43,225.27Zm3.7,12.57a4.29,4.29,0,0,1-3.7,1.9,4.75,4.75,0,0,1-4.66-4.23,5.31,5.31,0,0,1,1.4-4.66,4.54,4.54,0,0,1,6.84.4A5.57,5.57,0,0,1,1217.13,237.84Z"/><path class="cls-13" d="M1213.43,204.55a9.34,9.34,0,1,0,9.34,9.34A9.35,9.35,0,0,0,1213.43,204.55Zm3.7,12.57a4.29,4.29,0,0,1-3.7,1.9,4.75,4.75,0,0,1-4.66-4.23,5.31,5.31,0,0,1,1.4-4.66,4.54,4.54,0,0,1,6.84.4A5.57,5.57,0,0,1,1217.13,217.12Z"/><path class="cls-13" d="M1202.57,211.73a7.5,7.5,0,0,0-6.52-6.52l3.54,4Z"/><path class="cls-13" d="M1202.6,215.71s-.23,6.29-7.36,6.86l.32-.8,6.77-6.18Z"/><path class="cls-13" d="M1152.46,222.22l-.21.5H1157s.27.13.61-1.17Z"/><rect class="cls-18" x="312.49" y="78" width="4.12" height="185.89"/><path class="cls-19" d="M312.49,316.25c-7.53,11.09-17,15.37-17,15.37H256.06s62.17-23.83,56.43-15.37Z"/><path class="cls-20" d="M282.22,402.08a2.73,2.73,0,0,0-.66,3.29l0,0c.94,2.2,4,4.65,7.65,7.1l1.23.87.28.21.21.16c3.36,2.63,2.09,3.23,8.14,8.55,6.89,6.07,11.63,6.18,13,5.63,1.15-.48-1.17-3.69-3.74-7.31-.13-.17-.25-.35-.38-.53l-1-1.45c-3-4.35-2.24-6.4-1.53-12.87.58-5.27,9.68-29.41,9.68-29.41l-13.21-1.93s-4,19.23-8.35,22.19c-2.35,1.58-5,1.6-7.22,2.77-.16.08-.32.16-.47.25a17.16,17.16,0,0,0-3.61,2.46Z"/><path class="cls-19" d="M282.22,402.08a2.73,2.73,0,0,0-.66,3.29l0,0c1.15,2.19,4.17,4.64,7.66,7.08.46.32.86.62,1.22.89l.28.21.21.16c3.36,2.63,2.09,3.23,8.14,8.55,6.89,6.07,11.63,6.18,13,5.63,1.15-.48-1.17-3.69-3.74-7.31A29.91,29.91,0,0,1,296,412.94c-4.15-4.48-6.92-10.24-9.74-13.57-.16.08-.32.16-.47.25a17.16,17.16,0,0,0-3.61,2.46Z"/><path class="cls-20" d="M388.71,395.1c.82,3.45,6.63,2.87,13.12,1.53s4.95.25,14.19-.61,12-3.79,12.32-4.95-4.31-1.39-9.21-1.87l-1.85-.19c-5.53-.58-9.58-3.6-14.6-6.08-4.76-2.35-11.86-11.92-11.86-11.92l-12.67.85s6.65,8.55,9.22,12.26c1.51,2.19,1.43,5.08,1.24,7.31a11.61,11.61,0,0,0,.1,3.67Z"/><path class="cls-19" d="M401.83,396.63c6.49-1.34,4.95.25,14.19-.61s12-3.79,12.32-4.95-4.31-1.39-9.21-1.87l-.05.08a29.28,29.28,0,0,1-13.23,3.48c-6.27.13-12.91-1.39-17.24-1.33a11.61,11.61,0,0,0,.1,3.67c.82,3.45,6.63,2.87,13.12,1.53Z"/><path class="cls-19" d="M340.15,326.54l-11.85,27-15.46,35.21a29.32,29.32,0,0,1-8.22-.63,38.75,38.75,0,0,1-7.94-3.27S301,347,309,325.3c2-5.57,4.35-10.08,6.89-12.61,12.42-12.42,24.28,13.85,24.28,13.85Z"/><path class="cls-21" d="M328.1,283.71c-7.76-2.12-29.89.6-52.12,4.28l-4.66-6.5-48-3.17s-15.85,29.74-7.17,48.68c1.28,2.79,3.81,4.57,8.13,4.63h38.57c23.88,0,50.54-13.89,54-14.48,5.65-.95,7.91,8.6,13.55,18.63s53.07,44.43,53.07,44.43,7.29.06,10.3-.9a10.22,10.22,0,0,0,4.42-2.36s-52.54-88.46-70-93.23Z"/><path class="cls-19" d="M271,225.53c-17.11,8-51.8,24.49-52,24.38,0,0-12.75,4.07-20,0-12-6.77-18.52-25,3.53-40.7,11-7.83,18.81-9.73,20-22.23.64-6.78,11.6-29.15,29.79-27.08,1.52.17,10.89.54,17,3.27,15.68,7,27.25,59.28,1.61,62.36Z"/><path class="cls-20" d="M256.7,218.75c.08,0-8.41,2.5-14.09.37-5.34-2-9.39-9.43-9.3-9.44,2.42-.09,5.09-1.89,7.14-13.68l1,.31,17.39,5.3s-1.26,4.72-2.07,9.22c-.69,3.77-1.06,7.39-.11,7.92Z"/><path class="cls-22" d="M258.88,201.61s-1.26,4.72-2.07,9.22c-10-1.52-13.91-10-15.32-14.52l17.39,5.3Z"/><path class="cls-20" d="M261.47,206.3s-23.79-2.71-21.58-15.22.64-21.29,15.93-20.09,17.39,6.34,17.85,10.67-5.95,25-12.2,24.64Z"/><path class="cls-19" d="M272.8,174.8s-15.23,11.11-25.6,12-14.28-1.92-14.28-1.92a35.66,35.66,0,0,0,9.78-11.22,7.31,7.31,0,0,1,6-3.63c7.4-.54,21.43-.79,24.09,4.76Z"/><path class="cls-19" d="M263.28,173.81s5.09,4.17,6.7,7.26,2,10.12.78,13c0,0,7.94-13.07,3.44-19.42-4.76-6.73-10.92-.8-10.92-.8Z"/><path class="cls-13" d="M276.74,248.41c-.72,40.76-.2,32.25-5.46,36.11-1.28.93-4.85,1.49-9.54,1.75C247,287.1,221,285,220,282.73c-3.4-8-1-10.47-3.84-22.71-.3-1.3-.66-2.71-1.09-4.24-2.37-8.4-4.68-11.26,3.72-24.76,7.63-12.23,15.55-22.16,16.27-21.8,20.11,10.1,21.74,1.61,21.74,1.61s20.28,17.7,19.93,37.58Z"/><path class="cls-21" d="M328.3,353.51l-15.46,35.21a29.32,29.32,0,0,1-8.22-.63,38.75,38.75,0,0,1-7.94-3.27S301,347,309,325.3l19.32,28.21Z"/><path class="cls-13" d="M256.81,210.83s20.7,3,23.13,10.51,16.74,51.87,16.74,51.87-10.53,1.6-15.39-2.51-16.92-38.16-16.92-38.16l-7.56-21.71Z"/><path class="cls-23" d="M261.74,286.27C247,287.1,221,285,220,282.73c-3.4-8-1-10.47-3.84-22.71l7.12-17s-1.18,18.9,5.41,23.87,27,9.6,30.18,13.75a14.16,14.16,0,0,1,2.86,5.6Z"/><path class="cls-20" d="M244.81,278.32s14.57-2.74,16.93-1.65,8.1,5.08,8.82,6.47-5.24-1.06-7.18-1.5c-1.25-.28-4.55.69-6.19,1.15-6.87,1.94-11.09.94-11.09.94l-1.29-5.41Z"/><path class="cls-13" d="M235.05,209.21s-19.56,1-26.34,9c-9.53,11.26-28.45,59.21-17.61,65.61,12.21,7.2,55.57,1.88,55.57,1.88s1.44-5.7-.57-8.46S211.47,270,210,268.75s18.82-24.84,18.82-28.66,6.26-30.88,6.26-30.88Z"/><path class="cls-20" d="M262.44,280.1s3.06,3.33,4.06,3.73a3.42,3.42,0,0,0,1.64.3L266.09,281l-3.65-.9Z"/><path class="cls-20" d="M261.74,276.67l8.87,3.65a1.69,1.69,0,0,1-1.47.48,23.93,23.93,0,0,1-3.85-.9l-3.55-3.23Z"/><polygon class="cls-24" points="266.5 288.94 336.72 288.94 357.85 244.49 287.73 244.49 266.5 288.94 266.5 288.94"/><polygon class="cls-25" points="337.55 287.21 244.81 287.21 244.81 288.94 336.72 288.94 337.55 287.21 337.55 287.21"/><path class="cls-13" d="M319,266.71c.52-1.56-.54-2.82-2.39-2.82a4.72,4.72,0,0,0-4.3,2.82c-.53,1.57.54,2.83,2.38,2.83a4.73,4.73,0,0,0,4.31-2.83Z"/><polygon class="cls-18" points="773.09 152.36 743.55 169.42 714 152.36 714 118.24 743.55 101.18 773.09 118.24 773.09 152.36"/><ellipse class="cls-26" cx="661.75" cy="378.76" rx="17.75" ry="7.74"/><ellipse class="cls-26" cx="661.75" cy="404.63" rx="13" ry="5.87"/><ellipse class="cls-26" cx="661.75" cy="428.46" rx="13" ry="5.87"/><ellipse class="cls-26" cx="1113.15" cy="55.58" rx="17.75" ry="7.74"/><ellipse class="cls-26" cx="1113.15" cy="29.71" rx="13" ry="5.87"/><ellipse class="cls-26" cx="1113.15" cy="5.87" rx="13" ry="5.87"/></svg>